# AST/ASF file generated using VICON BodyLanguage
# -----------------------------------------------
:version 1.10
:name VICON
:units
  mass 1.0
  length 0.45
  angle deg
:documentation
   .ast/.asf automatically generated from VICON data using
   VICON BodyBuilder and BodyLanguage model FoxedUp or BRILLIANT.MOD
:root
   order TX TY TZ RX RY RZ
   axis XYZ
   position 0 0 0  
   orientation 0 0 0 
:bonedata
  begin
     id 1 
     name lhipjoint
     direction 0.588788 -0.725889 0.355548 
     length 2.37778 
     axis 0 0 0  XYZ
  end
  begin
     id 2 
     name lfemur
     direction 0.34202 -0.939693 0  
     length 6.86393  
     axis 0 0 20  XYZ
    dof rx ry rz
    limits (-160.0 20.0)
           (-70.0 70.0)
           (-60.0 70.0)
  end
  begin
     id 3 
     name ltibia
     direction 0.34202 -0.939693 0   
     length 7.32851   
     axis 0 0 20   XYZ
    dof rx
    limits (-10.0 170.0)
  end
  begin
     id 4 
     name lfoot
     direction 0.0626533 -0.172138 0.983078   
     length 1.98929   
     axis -90 7.62852e-016 20   XYZ
    dof rx rz
    limits (-45.0 90.0)
           (-70.0 20.0)
  end
  begin
     id 5 
     name ltoes
     direction 1.53647e-011 -4.21734e-011 1   
     length 1.00479   
     axis -90 7.62852e-016 20   XYZ
    dof rx
    limits (-90.0 20.0)
  end
  begin
     id 6 
     name rhipjoint
     direction -0.59141 -0.724168 0.354705   
     length 2.38343  
     axis 0 0 0  XYZ 
  end
  begin
     id 7 
     name rfemur
     direction -0.34202 -0.939693 0   
     length 6.95589   
     axis 0 0 -20   XYZ
    dof rx ry rz
    limits (-160.0 20.0)
           (-70.0 70.0)
           (-70.0 60.0)
  end
  begin
     id 8 
     name rtibia
     direction -0.34202 -0.939693 0   
     length 7.32327   
     axis 0 0 -20   XYZ
    dof rx
    limits (-10.0 170.0)
 end
 begin
     id 9 
     name rfoot
     direction -0.0660461 -0.18146 0.981178   
     length 1.85272  
     axis -90 -7.62852e-016 -20   XYZ
    dof rx rz
    limits (-45.0 90.0)
           (-20.0 70.0)
  end
  begin
     id 10 
     name rtoes
     direction -1.53586e-011 -4.21988e-011 1   
     length 0.93746   
     axis -90 -7.62852e-016 -20   XYZ
    dof rx
    limits (-90.0 20.0)
  end
  begin
     id 11 
     name lowerback
     direction -0.0107982 0.991059 0.13299   
     length 1.98691   
     axis 0 0 0   XYZ
    dof rx ry rz
    limits (-20.0 45.0)
           (-30.0 30.0)
           (-30.0 30.0)
  end
  begin
     id 12 
     name upperback
     direction 0.0076296 0.999916 0.0104576   
     length 1.99501   
     axis 0 0 0   XYZ
    dof rx ry rz
    limits (-20.0 45.0)
           (-30.0 30.0)
           (-30.0 30.0)
  end
  begin
     id 13 
     name thorax
     direction 0.01176 0.998615 -0.0512909   
     length 2.03144   
     axis 0 0 0   XYZ
    dof rx ry rz
    limits (-20.0 45.0)
           (-30.0 30.0)
           (-30.0 30.0)
  end
  begin
     id 14 
     name lowerneck
     direction -0.0171909 0.999644 0.0204011   
     length 1.71818   
     axis 0 0 0   XYZ
    dof rx ry rz
    limits (-20.0 45.0)
           (-30.0 30.0)
           (-30.0 30.0)
  end
  begin
     id 15 
     name upperneck
     direction 0.0250902 0.997482 -0.0663316   
     length 1.66199   
     axis 0 0 0   XYZ
    dof rx ry rz
    limits (-20.0 45.0)
           (-30.0 30.0)
           (-30.0 30.0)
  end
  begin
     id 16
     name head
     direction 0.00881535 0.99956 -0.0283365  
     length 1.81545  
     axis 0 0 0   XYZ
    dof rx ry rz
    limits (-20.0 45.0)
           (-30.0 30.0)
           (-30.0 30.0)
  end
  begin
     id 17 
     name lclavicle
     direction 0.840411 0.486876 -0.238035  
     length 3.30409  
     axis 0 0 0   XYZ
    dof ry rz
    limits (-20.0 10.0)
           (0.0 20.0)
  end
  begin
     id 18 
     name lhumerus
     direction 1 -4.48977e-011 -5.16239e-027   
     length 4.62672   
     axis 180 -30 -90   XYZ
    dof rx ry rz
    limits (-60.0 90.0)
           (-90.0 90.0)
           (-90.0 90.0)
  end
  begin
     id 19
     name lradius
     direction 1 -4.48977e-011 -8.71171e-027   
     length 3.11018   
     axis 180 -30 -90   XYZ
    dof rx
    limits (-10.0 170.0)
  end
  begin
     id 20
     name lwrist
     direction 1 -4.48912e-011 -1.03764e-026   
     length 1.55509   
     axis 9.09556e-015 90 90   XYZ
    dof ry
    limits (-180.0 0.0)
 end
  begin
     id 21 
     name lhand
     direction 1 -4.49072e-011 -2.07528e-026   
     length 0.743834   
     axis 1.3242e-014 90 90   XYZ
    dof rx rz
    limits (-90.0 90.0)
           (-45.0 45.0)
  end
  begin
     id 22 
     name lfingers
     direction 1 -4.48909e-011 -4.15056e-026   
     length 0.599698   
     axis 2.64841e-014 90 90   XYZ
    dof rx
    limits (0.0 90.0)
  end
  begin
     id 23
     name lthumb
     direction 0.707107 -6.35013e-011 0.707107   
     length 0.86105   
     axis -90 45 2.85299e-015   XYZ
    dof rx rz
    limits (-45.0 45.0)
           (-45.0 45.0)
  end
  begin
     id 24 
     name rclavicle
     direction -0.835208 0.500237 -0.228452   
     length 3.2716  
     axis 0 0 0   XYZ 
    dof ry rz
    limits (-10.0 20.0)
           (-20.0 0.0)
  end
  begin
     id 25 
     name rhumerus
     direction -1 -4.48978e-011 -5.1953e-028  
     length 4.55919   
     axis 180 30 90   XYZ
    dof rx ry rz
    limits (-90.0 60.0)
           (-90.0 90.0)
           (-90.0 90.0)
  end
  begin
     id 26 
     name rradius
     direction -1 -4.48961e-011 -5.99546e-027   
     length 3.22748   
     axis 180 30 90   XYZ
    dof rx
    limits (-10.0 170.0)
  end
  begin
     id 27 
     name rwrist
     direction -1 -4.48986e-011 -1.03764e-026   
     length 1.61374   
     axis 9.09556e-015 -90 -90   XYZ
    dof ry
    limits (-180.0 0.0)
  end
  begin
     id 28
     name rhand
     direction -1 -4.4899e-011 -2.07528e-026   
     length 0.700882   
     axis 1.3242e-014 -90 -90   XYZ
    dof rx rz
    limits (-90.0 90.0)
           (-45.0 45.0)
  end
  begin
     id 29
     name rfingers
     direction -1 -4.48991e-011 -4.15056e-026   
     length 0.565069   
     axis 2.64841e-014 -90 -90   XYZ
    dof rx
    limits (0.0 90.0)
  end
  begin
     id 30
     name rthumb
     direction -0.707107 -6.34804e-011 0.707107   
     length 0.811329   
     axis -90 -45 -2.85299e-015   XYZ
    dof rx rz
    limits (-45.0 45.0)
           (-45.0 45.0)
  end
:hierarchy
  begin
    root lhipjoint rhipjoint lowerback
    lhipjoint lfemur
    lfemur ltibia
    ltibia lfoot
    lfoot ltoes
    rhipjoint rfemur
    rfemur rtibia
    rtibia rfoot
    rfoot rtoes
    lowerback upperback
    upperback thorax
    thorax lowerneck lclavicle rclavicle
    lowerneck upperneck
    upperneck head
    lclavicle lhumerus
    lhumerus lradius
    lradius lwrist
    lwrist lhand lthumb
    lhand lfingers
    rclavicle rhumerus
    rhumerus rradius
    rradius rwrist
    rwrist rhand rthumb
    rhand rfingers
  end

#!OML:ASF F:\VICON\USERDATA\INSTALL\SteveWalk\SteveWalk.ASF
:FULLY-SPECIFIED
:DEGREES
177
root -0.218104 15.9043 -2.94755 17.0918 -1.45952 4.96681
lowerback -15.1224 0.971585 -8.4821
upperback -6.0555 2.56121 -2.63696
thorax 1.76593 1.36493 2.41186
lowerneck -6.17568 -1.86594 -0.280106
upperneck 10.1802 -2.99911 4.71224
head 4.58311 -1.24919 1.47493
rclavicle -6.22941e-014 3.45885e-014
rhumerus -32.4835 5.14358 -82.4828
rradius 59.9209
rwrist -15.6969
rhand -19.8564 -34.7375
rfingers 7.12502
rthumb 6.47846 295.382
lclavicle -6.22941e-014 3.45885e-014
lhumerus -76.7962 32.9288 18.9548
lradius 11.4628
lwrist -46.62
lhand -13.4244 -13.2689
lfingers 7.12502
lthumb 12.6841 16.326
rfemur -7.96101 -1.85573 13.6333
rtibia 52.2848
rfoot 19.2738 19.474
rtoes -14.4706
lfemur -49.7047 -1.21237 -26.9014
ltibia 39.1629
lfoot -6.6936 -3.21921
ltoes -8.92103
178
root -0.194412 15.9156 -2.72687 16.9451 -0.89166 5.13421
lowerback -14.8765 0.780822 -8.263
upperback -5.94933 2.26596 -2.76659
thorax 1.79459 1.21051 2.10384
lowerneck -6.30123 -1.80624 -0.175538
upperneck 10.1008 -2.92978 4.73088
head 4.57579 -1.2097 1.46549
rclavicle 2.83268e-015 3.18055e-015
rhumerus -33.2609 4.54499 -82.9479
rradius 59.0392
rwrist -15.5801
rhand -18.8116 -36.2907
rfingers 7.12502
rthumb 7.48699 293.862
lclavicle 2.83268e-015 3.18055e-015
lhumerus -75.5154 33.2603 20.9277
lradius 11.6513
lwrist -44.8103
lhand -13.2253 -13.1127
lfingers 7.12502
lthumb 12.876 16.4701
rfemur -9.26959 -2.66537 13.4343
rtibia 55.3123
rfoot 19.938 19.362
rtoes -14.6002
lfemur -48.8788 -1.55361 -27.254
ltibia 39.7573
lfoot -7.7977 -3.09651
ltoes -8.95378
179
root -0.189781 15.9307 -2.53064 17.6844 -2.46079 4.88171
lowerback -15.4436 1.16319 -8.23455
upperback -6.19236 2.80694 -2.81802
thorax 1.79097 1.48288 2.12994
lowerneck -6.47584 -1.76156 -0.352442
upperneck 10.4146 -2.90182 5.07704
head 4.25799 -1.16529 1.45063
rclavicle -2.62023e-014 2.98177e-014
rhumerus -33.9349 3.92453 -83.3682
rradius 58.1224
rwrist -15.3351
rhand -18.184 -36.8602
rfingers 7.12502
rthumb 8.09271 293.315
lclavicle -2.62023e-014 2.98177e-014
lhumerus -73.4322 33.1532 24.5097
lradius 11.962
lwrist -41.6631
lhand -13.1671 -11.9212
lfingers 7.12502
lthumb 12.9321 17.6581
rfemur -12.4377 -1.68787 13.1089
rtibia 58.3408
rfoot 21.4782 18.2166
rtoes -5.61362
lfemur -49.1688 -0.327832 -27.4416
ltibia 40.2231
lfoot -8.76532 -2.39855
ltoes -9.98576
180
root -0.177579 15.9539 -2.30598 17.7019 -2.91185 5.00353
lowerback -15.4885 1.1832 -8.29738
upperback -6.18867 2.84948 -2.92899
thorax 1.81691 1.50167 2.05642
lowerneck -6.5798 -1.7115 -0.480194
upperneck 10.3716 -2.84647 5.31305
head 4.26583 -1.12944 1.54628
rclavicle 7.4917e-015 -7.95139e-016
rhumerus -34.6949 3.17068 -83.818
rradius 57.2182
rwrist -14.9239
rhand -17.9997 -35.8976
rfingers 7.12502
rthumb 8.27066 294.284
lclavicle 7.4917e-015 -7.95139e-016
lhumerus -71.8858 33.1434 27.068
lradius 12.2044
lwrist -39.5868
lhand -13.3068 -11.4665
lfingers 7.12502
lthumb 12.7974 18.1212
rfemur -14.3825 -1.75715 12.7264
rtibia 61.0713
rfoot 19.1105 16.4746
rtoes -5.65093
lfemur -48.396 -0.230578 -27.6922
ltibia 40.529
lfoot -9.74387 -1.61967
ltoes -10.664
181
root -0.156806 15.9888 -2.06936 17.3229 -2.69547 5.29498
lowerback -15.24 1.04831 -8.24972
upperback -6.05859 2.65265 -3.07355
thorax 1.85172 1.39703 1.8421
lowerneck -6.56428 -1.63056 -0.442013
upperneck 10.2835 -2.74567 5.39068
head 4.23399 -1.07616 1.56977
rclavicle 1.08089e-015 1.55052e-014
rhumerus -35.4999 2.44442 -84.2587
rradius 56.1167
rwrist -14.9016
rhand -17.7835 -35.0566
rfingers 7.12502
rthumb 8.4793 295.134
lclavicle 1.08089e-015 1.55052e-014
lhumerus -71.3936 33.8402 27.4773
lradius 12.223
lwrist -39.77
lhand -13.6265 -11.7757
lfingers 7.12502
lthumb 12.4892 17.8311
rfemur -15.6144 -2.42609 12.3828
rtibia 63.5419
rfoot 15.6291 14.8724
rtoes -4.86843
lfemur -46.9648 -0.752965 -27.9432
ltibia 40.5803
lfoot -10.5687 -0.971688
ltoes -10.4897
182
root -0.146157 16.0259 -1.85768 17.3175 -3.1881 5.44447
lowerback -15.2673 1.08805 -8.35759
upperback -6.05917 2.72336 -3.13005
thorax 1.85579 1.43199 1.85424
lowerneck -6.56491 -1.56243 -0.444323
upperneck 10.2084 -2.64803 5.37387
head 4.20797 -1.03065 1.57056
rclavicle -4.61429e-014 4.8901e-014
rhumerus -36.2336 1.83403 -84.6383
rradius 54.8167
rwrist -14.9438
rhand -17.4612 -34.6429
rfingers 7.12502
rthumb 8.79035 295.56
lclavicle -4.61429e-014 4.8901e-014
lhumerus -70.7194 34.5338 28.2474
lradius 12.2223
lwrist -39.6395
lhand -13.9235 -12.4621
lfingers 7.12502
lthumb 12.2028 17.162
rfemur -17.6572 -2.44822 12.1054
rtibia 65.8995
rfoot 12.3677 13.435
rtoes -7.34454
lfemur -46.0185 -0.55468 -28.2327
ltibia 40.4739
lfoot -11.2076 -0.498327
ltoes -9.04091
